<svg width="60" height="60" viewBox="0 0 60 60" fill="none" xmlns="http://www.w3.org/2000/svg">
  <path d="M30 10C25 15 15 25 10 30C15 35 25 45 30 50C35 45 45 35 50 30C45 25 35 15 30 10Z" fill="#9C6ADE"/>
  <path d="M30 15C27 18 22 23 20 25C22 27 27 32 30 35C33 32 38 27 40 25C38 23 33 18 30 15Z" fill="#B794F6"/>
  <path d="M30 20C29 21 28 22 27 23C28 24 29 25 30 26C31 25 32 24 33 23C32 22 31 21 30 20Z" fill="#7C4DFF"/>
  <path d="M30 5C28 7 25 10 23 12C25 14 28 17 30 19C32 17 35 14 37 12C35 10 32 7 30 5Z" fill="#FF8A80"/>
</svg> 